<?xml version="1.0" encoding="UTF-8"?>
<!-- Generator: Adobe Illustrator 21.1.0, SVG Export Plug-In . SVG Version: 6.00 Build 0)  -->
<svg version="1.1" id="Слой_1" xmlns="http://www.w3.org/2000/svg" xmlns:xlink="http://www.w3.org/1999/xlink" x="0px" y="0px" viewBox="0 0 831 426" style="enable-background:new 0 0 831 426;" xml:space="preserve">
<style type="text/css">
	.st0{fill:#FFFFFF;stroke:#000000;stroke-width:8;stroke-miterlimit:10;}
	.st1{fill:none;stroke:#FFFFFF;stroke-width:18;stroke-miterlimit:10;}
	.st2{fill:none;stroke:#000000;stroke-width:18;stroke-miterlimit:10;}
	.st3{fill:none;stroke:#FF6047;stroke-width:18;stroke-miterlimit:10;}
</style>
<path class="st3" d="M764.9,100.2H637.5c-26.7,0-48.3,21.6-48.3,48.3v127.4c0,26.7,21.6,48.3,48.3,48.3h127.4  c26.7,0,48.3-21.6,48.3-48.3V148.6C813.2,121.9,791.5,100.2,764.9,100.2z"/>
<path class="st2" d="M772.7,265.3c0,10.2-8.3,18.5-18.5,18.5H648.1c-10.2,0-18.5-8.3-18.5-18.5V159.2c0-10.2,8.3-18.5,18.5-18.5  h106.1c10.2,0,18.5,8.3,18.5,18.5V265.3z"/>
<path class="st2" d="M701.2,246.6L701.2,246.6c-19,0-34.3-15.4-34.3-34.3v0c0-19,15.4-34.3,34.3-34.3h0c19,0,34.3,15.4,34.3,34.3v0  C735.5,231.2,720.1,246.6,701.2,246.6z"/>
<line class="st2" x1="813.2" y1="11.7" x2="7.7" y2="312.8"/>
<line class="st2" x1="813.2" y1="411.9" x2="7.7" y2="112.7"/>
</svg>